<svg width="385" height="148" viewBox="0 0 385 148" fill="none" xmlns="http://www.w3.org/2000/svg">
<path d="M3.53286 68.8572C4.78792 59.9839 3.53286 49.971 17.3386 30.7019C38.6747 12.9553 90.1322 8.51862 121.509 4.08196C152.885 -0.354696 250.78 -0.354696 312.278 8.51862C361.477 15.6173 378.797 42.2372 381.307 54.6599C383.399 66.1952 385.323 92.9926 376.287 107.9C364.991 126.534 334.87 133.632 316.044 138.069C297.218 142.506 193.047 145.168 164.181 145.168C135.314 145.168 37.4196 130.083 17.3386 120.322C-2.74246 110.562 2.2778 77.7305 3.53286 68.8572Z" fill="#F8F5EC"/>
<path d="M262.974 139.972C268.432 139.712 273.64 139.493 280.125 139.165C280.129 139.165 280.132 139.165 280.136 139.165C281.069 139.117 282.02 139.068 282.99 139.016C290.74 138.469 301.176 138.403 315.539 135.928C315.826 135.861 316.118 135.794 316.414 135.725C333.258 131.973 346.161 127.798 353.599 124.275C354.981 123.624 356.448 122.983 359.876 120.966C362.096 119.613 365.13 117.747 368.817 114.336C370.758 112.509 372.873 110.215 374.765 107.162C374.792 107.117 374.82 107.072 374.847 107.027C381.315 96.8484 382.651 76.6764 380.314 59.1491C380.124 57.7279 379.911 56.3313 379.661 54.9583L379.668 54.9911C377.693 46.4089 372.03 39.4165 367.409 34.7241C359.406 26.7413 349.792 21.0399 338.649 16.7629C330.68 13.7348 321.992 11.4976 312.059 10.0379C309.233 9.62421 306.186 9.21096 303.156 8.83004C292.664 7.51457 282.448 6.42489 272.053 5.48071C270.731 5.36109 269.399 5.24354 268.061 5.12852C258.876 4.33985 249.474 3.66828 239.294 3.14872C221.153 2.24223 206.623 2.00608 190.575 2.00664C184.333 2.01355 177.758 2.06822 170.703 2.19453C159.603 2.42162 143.41 2.73885 127.421 4.28977C126.007 4.43434 124.757 4.57368 123.328 4.75407C123.321 4.75495 123.314 4.75583 123.307 4.75671C122.73 4.82996 122.172 4.90446 121.636 4.9801C107.598 6.9117 93.8955 8.55911 83.8155 10.157C67.1355 12.7823 60.9731 14.3644 55.84 15.5935C53.9079 16.0743 52.1444 16.5338 50.0198 17.1199C42.4849 19.2667 30.819 22.6112 20.9542 29.3272C20.9171 29.3529 20.8801 29.3787 20.8432 29.4045C19.2356 30.5212 17.9338 31.4427 17.8346 31.2982C17.7224 31.1686 18.88 30.0041 20.5127 28.8719C25.7646 25.2297 31.518 22.6908 36.7335 20.7197C36.9498 20.4798 38.337 19.8395 40.0414 19.2593C44.319 17.7567 57.5891 13.5059 79.0705 9.90526C77.5957 10.1182 76.3589 10.2998 75.2768 10.4601C74.006 10.6485 73.0338 10.7951 72.1962 10.9234C70.4517 11.1922 69.2942 11.3752 67.2426 11.7497C62.5037 12.646 55.0588 14.1834 47.3778 16.3666C45.4268 16.9199 43.8463 17.2662 43.7957 17.1004C43.7614 16.9308 45.2802 16.3108 47.2402 15.7552C47.2785 15.7443 47.3168 15.7334 47.3552 15.7226C54.989 13.5564 62.6882 11.9625 67.6504 11.0352C68.9151 10.7987 70.0035 10.6048 70.8216 10.4624C71.4758 10.3484 72.2935 10.2094 72.7492 10.1389C72.8097 10.1295 72.925 10.1118 73.0626 10.0916C73.0649 10.0913 73.0672 10.091 73.0695 10.0907C73.1464 10.0795 73.5393 10.0218 73.9608 9.97403C74.0459 9.96437 74.2311 9.94369 74.4469 9.92505C74.502 9.91693 74.5571 9.90883 74.6123 9.90074C75.3808 9.78784 76.1645 9.67479 77.0138 9.55256C80.3264 9.08256 85.5754 8.30377 96.5158 6.9155C102.526 6.14053 111.088 5.13217 121.456 3.71152C128.366 2.76685 136.283 2.20584 144.882 1.76123C143.404 1.82334 141.972 1.88944 140.557 1.96159C136.83 2.15428 133.306 2.3757 129.575 2.69077C128.241 2.80313 126.758 2.94188 125.399 3.08507C124.15 3.21529 122.656 3.39134 121.434 3.55585C120.526 3.67791 119.601 3.80009 118.66 3.92265C117.161 4.11759 115.591 4.31759 114.094 4.50545C114.09 4.5059 114.087 4.50636 114.084 4.50681C111.954 4.77444 109.837 5.03601 107.702 5.29992C106.955 5.39181 106.212 5.48352 105.47 5.57554C102.565 5.93513 99.6636 6.29695 96.3681 6.70738C95.965 6.75597 95.5256 6.80793 95.1971 6.84626C94.8417 6.8879 94.5092 6.92645 94.1901 6.9632C93.9092 6.99552 93.6409 7.02611 93.3834 7.05577C93.3489 7.05976 93.3144 7.06375 93.2799 7.06774C92.9916 7.10098 92.7158 7.13317 92.4502 7.16438C92.1852 7.19552 91.9296 7.2257 91.6776 7.25624C91.6753 7.25657 91.673 7.2569 91.6707 7.25722C91.4073 7.28927 91.2075 7.31369 90.9316 7.34847C90.5844 7.39229 90.2857 7.43067 89.9235 7.47841C89.5731 7.52458 89.2073 7.57368 88.8374 7.62413C88.4677 7.67457 88.0907 7.72677 87.7077 7.78045C87.3259 7.83394 86.9399 7.88856 86.5493 7.9445C86.1593 8.00036 85.7636 8.0577 85.3654 8.1158C84.967 8.17393 84.5639 8.23318 84.1586 8.29327C83.228 8.43116 82.3335 8.53529 81.6694 8.58024C81.0058 8.62507 80.6286 8.60666 80.6201 8.52636C80.6119 8.44612 80.9738 8.30974 81.6261 8.14835C82.2792 7.98687 83.1675 7.81461 84.0987 7.66954C84.3529 7.62995 84.6081 7.59025 84.8643 7.55072C85.0163 7.52725 85.1698 7.50375 85.3226 7.48032C85.7333 7.41731 86.148 7.35399 86.5647 7.29121C86.9819 7.22837 87.3982 7.16637 87.8272 7.10314C88.2557 7.03998 88.6894 6.97672 89.1287 6.91369C89.5669 6.8508 90.0143 6.78757 90.4679 6.72465C90.9098 6.6633 91.4163 6.59451 91.872 6.53411C92.2044 6.48993 92.6135 6.43711 92.9541 6.39368C93.3096 6.34836 93.6589 6.30461 93.9952 6.26308C94.333 6.22134 94.6551 6.18224 94.97 6.14399C95.0036 6.13989 95.0371 6.13579 95.0707 6.13169C95.3484 6.098 95.616 6.0657 95.8685 6.03506C96.1508 6.00081 96.4176 5.96816 96.6706 5.93692C96.9493 5.9026 97.1182 5.88112 97.3253 5.85467C100.071 5.49306 103.459 5.04526 106.692 4.62181C107.099 4.56848 107.502 4.51576 107.899 4.46378C110.023 4.18542 112.134 3.90834 114.253 3.62582C115.77 3.42342 117.329 3.21306 118.86 3.00158C119.688 2.88722 120.504 2.77305 121.308 2.65891C122.653 2.46654 124.307 2.2634 125.666 2.11389C127.082 1.95715 128.522 1.81522 129.912 1.68949C133.675 1.35054 137.317 1.09833 141.111 0.880407C144.792 0.669887 148.597 0.499212 152.321 0.367559C156.082 0.234196 159.972 0.134072 163.692 0.0718045C166.465 0.0252172 169.263 0.00593781 171.896 0.00130463C173.333 -0.00146794 174.667 0.000458598 176.027 0.00462699C176.031 0.00467956 176.036 0.00473297 176.041 0.0047859C177.227 0.008551 178.416 0.0142163 179.59 0.0211424C182.051 0.0364866 184.555 0.0567678 186.991 0.0806153C189.417 0.10438 191.913 0.13171 194.338 0.161764C196.769 0.191588 199.276 0.22549 201.715 0.262015C204.185 0.298977 206.615 0.33857 209.156 0.384725C212.521 0.445723 215.82 0.513753 219.251 0.598106C222.627 0.680907 226.059 0.777795 229.475 0.889033C230.672 0.92798 231.872 0.969088 233.074 1.01187C233.079 1.01204 233.084 1.01222 233.088 1.0124C235.308 1.0914 237.534 1.17697 239.762 1.26947C243.205 1.41246 246.645 1.57136 250.112 1.75023C253.565 1.9284 257.061 2.12739 260.545 2.34801C264.058 2.57062 267.623 2.81849 271.246 3.10282C274.442 3.35338 277.719 3.63189 280.858 3.91897C281.688 3.99476 282.54 4.07396 283.376 4.15322C287.331 4.52797 291.192 4.92354 294.964 5.33596C298.769 5.75222 302.57 6.19553 306.347 6.6739C308.385 6.93223 310.426 7.20238 312.428 7.48064C314.286 7.73961 316.052 8.01571 317.895 8.33908C321.772 9.01986 325.624 9.85358 329.45 10.8727C333.297 11.8985 337.086 13.1019 340.844 14.5347C342.96 15.3406 345.165 16.2698 347.188 17.2111C349.281 18.1835 351.296 19.2137 353.236 20.2993C354.042 20.7504 354.825 21.2058 355.584 21.663C356.721 22.3478 357.801 23.0343 358.875 23.7519C360.678 24.9576 362.371 26.1934 363.992 27.4784C365.584 28.7404 367.105 30.0525 368.52 31.3767C369.971 32.7378 371.145 33.927 372.461 35.3731C375.678 38.9926 377.337 41.4696 379.034 44.3771C379.368 44.9625 379.675 45.5232 380.008 46.1709C381.312 48.7267 382.406 51.4373 383.01 54.3157L383.017 54.3498C383.219 55.439 383.404 56.577 383.563 57.6651C384.127 61.5491 384.481 65.3686 384.679 69.2669C384.872 73.1161 384.899 77.013 384.719 80.8881C384.537 84.7608 384.154 88.6247 383.463 92.4764C382.772 96.3149 381.746 100.222 380.25 103.82C379.556 105.491 378.708 107.205 377.739 108.78C377.501 109.168 377.258 109.547 377.011 109.915C376.113 111.257 375.137 112.511 374.115 113.678C373.696 114.156 373.274 114.616 372.842 115.065C371.359 116.609 369.802 117.993 368.245 119.234C366.682 120.478 365.114 121.587 363.536 122.611C361.961 123.633 360.374 124.571 358.773 125.45C357.106 126.363 355.706 127.077 353.89 127.944C352.71 128.504 351.54 129.032 350.369 129.537C348.614 130.293 346.855 130.998 345.072 131.67C343.29 132.342 341.522 132.966 339.732 133.566C339.158 133.758 338.55 133.958 337.971 134.145C336.19 134.721 334.409 135.266 332.637 135.786C330.859 136.307 329.104 136.799 327.345 137.277C325.597 137.752 323.836 138.213 322.082 138.665C320.144 139.163 318.261 139.626 316.511 140.052C315.609 140.274 314.389 140.505 313.569 140.645C310.821 141.109 308.488 141.388 306.031 141.664C305.546 141.717 305.134 141.762 304.695 141.808C302.791 142.009 300.872 142.19 299.008 142.357C296.661 142.565 294.431 142.748 292.175 142.924C289.952 143.097 287.657 143.265 285.436 143.423C283.11 143.587 281.071 143.727 278.686 143.885C276.431 144.035 274.037 144.192 271.516 144.351C268.993 144.511 266.323 144.672 263.636 144.824C260.912 144.978 258.23 145.12 255.493 145.255C252.795 145.389 250.04 145.515 247.365 145.63C244.659 145.746 241.972 145.853 239.297 145.953C236.627 146.052 233.872 146.148 231.293 146.231C227.111 146.367 222.953 146.49 218.788 146.605C214.639 146.72 210.5 146.825 206.333 146.922C202.22 147.018 198.07 147.107 193.906 147.186C189.768 147.264 185.607 147.334 181.486 147.39C180.556 147.403 179.646 147.415 178.756 147.426C175.475 147.466 172.314 147.496 169.072 147.513C169.05 147.513 169.027 147.513 169.005 147.513C167.432 147.521 165.676 147.525 164.181 147.521C161.753 147.515 159.146 147.408 156.693 147.269C155.191 147.183 153.696 147.083 152.255 146.976C150.755 146.865 149.328 146.749 147.877 146.624C146.388 146.496 144.966 146.366 143.544 146.23C142.087 146.092 140.683 145.952 139.284 145.809C137.998 145.678 136.652 145.537 135.288 145.39C135.161 145.377 135.033 145.363 134.906 145.349C133.387 145.185 131.579 144.98 129.995 144.792C125.669 144.276 121.501 143.747 117.255 143.182C112.991 142.614 108.762 142.025 104.471 141.401C102.807 141.159 101.133 140.912 99.4517 140.66C96.8423 140.268 94.2285 139.866 91.6042 139.451C87.288 138.769 82.9772 138.06 78.6233 137.31C74.3141 136.567 69.942 135.78 65.6262 134.963C61.2923 134.143 56.9465 133.281 52.6606 132.378C47.9373 131.383 43.1089 130.307 38.3901 129.153C33.6741 127.994 28.936 126.749 24.2666 125.251C21.5487 124.365 19.0137 123.487 16.4122 122.228C14.3115 121.197 12.3621 119.873 10.6429 118.299C6.71426 114.722 4.15952 109.98 2.62007 105.154C1.69018 102.252 1.09046 99.2879 0.707547 96.3203C0.482294 94.7517 0.327001 93.2463 0.218409 91.7955C-0.374477 82.9709 0.318084 76.1521 1.35756 68.5495C1.56525 67.0113 1.70092 65.37 1.86191 63.6102C1.94675 62.6565 2.01633 61.8601 2.11619 60.9006C2.13571 60.7145 2.15679 60.5204 2.17905 60.3219C2.32393 59.0578 2.50649 57.5979 2.91379 55.5716C3.70059 51.5466 5.61819 45.396 9.72065 38.5114C10.7483 36.7736 11.5787 35.7748 11.4928 36.2316C11.4443 36.5387 10.952 37.5148 10.3398 38.652C11.5447 36.5733 12.8309 34.564 14.1759 32.6038C14.7173 31.8145 15.2521 31.1139 15.6673 30.6325C16.0834 30.15 16.3427 29.9267 16.3751 30.0191C16.4086 30.1109 16.2125 30.5122 15.8513 31.1225C15.4963 31.7236 14.9836 32.5194 14.4616 33.2994C13.0612 35.3903 11.7377 37.5236 10.5165 39.7198C9.29509 41.9175 8.18305 44.1642 7.21036 46.4998C6.24246 48.823 5.42307 51.2261 4.79811 53.6789C4.17124 56.1235 3.74626 58.6298 3.45823 61.1268C3.16154 63.641 3.00616 66.0991 2.67914 68.5278C2.66987 68.5961 2.66046 68.6643 2.6509 68.7324C2.45414 70.1233 2.24959 71.583 2.07704 72.9916C2.00991 73.5365 1.94627 74.0796 1.88535 74.6271C1.8374 75.0583 1.78971 75.5046 1.74209 75.9768C1.25833 80.7851 1.04203 85.7076 1.29004 90.5748C1.54492 95.4585 2.24795 100.361 3.81728 105.051C5.37782 109.721 7.91353 114.214 11.6968 117.534C13.2876 118.937 15.0681 120.115 16.9884 121.043C19.5661 122.269 22.1486 123.139 24.9013 124.009C29.5176 125.446 34.2631 126.655 38.9336 127.765C42.5712 128.626 46.1781 129.42 49.8479 130.19C51.2596 130.473 52.6822 130.753 54.1079 131.03C58.1516 131.813 62.2779 132.557 66.3151 133.254C59.1373 131.941 53.3697 130.82 47.9113 129.684C47.1718 129.53 46.445 129.377 45.7282 129.224C38.3816 127.606 31.1498 126.109 21.809 122.942C20.9376 122.634 20.0992 122.319 19.3521 122.018C18.5367 121.691 17.6989 121.325 17.0142 120.99C5.11542 114.921 2.9198 103.04 1.86104 95.4419C0.951375 87.3997 1.47009 81.2584 1.91391 76.5324C2.2266 73.4556 2.60774 70.8843 2.92617 68.7714C3.56388 63.9662 3.76136 60.9766 4.32827 58.2063C5.10118 52.4387 9.55887 42.1752 12.6166 37.5358C13.6518 35.8171 14.6738 34.5351 14.8136 34.6341C14.9513 34.742 14.1613 36.1824 13.1348 37.8887C9.9054 42.7575 5.21337 53.765 4.5808 60.6097C4.25312 62.5794 4.10545 64.7769 3.54847 68.8594C3.23715 70.9235 2.83651 73.577 2.50541 76.9105C2.08265 81.5443 1.58758 87.5692 2.49518 95.4718C3.54705 102.95 5.7327 114.543 17.2878 120.427C18.7149 121.121 20.3463 121.762 22.0791 122.374C31.0523 125.413 37.9603 126.866 45.2477 128.479C45.952 128.63 46.6693 128.782 47.4008 128.936C47.4053 128.937 47.4099 128.938 47.4144 128.939C54.1364 130.345 61.5033 131.769 71.4217 133.537C94.2854 137.705 125.328 141.719 132.696 142.407C134.165 142.563 135.555 142.704 137.009 142.847C142.583 143.3 149.298 144.323 164.181 144.623C164.423 144.622 164.672 144.622 164.929 144.62C168.347 144.605 172.312 144.563 176.623 144.502C183.145 144.33 189.447 144.13 194.935 143.965C199.707 143.821 204.018 143.642 208.294 143.45C209.501 143.395 210.719 143.338 211.947 143.28C214.935 143.14 217.843 142.999 220.738 142.866C223.015 142.762 225.446 142.643 227.969 142.515C237.214 142.045 248.303 141.463 262.729 140.79C278.03 140.062 291.1 139.333 302.351 138.31C294.09 139.042 287.724 139.386 282.371 139.678C281.379 139.731 280.415 139.78 279.478 139.827C272.945 140.153 268.127 140.353 263.048 140.595C238.642 141.707 229.474 141.974 219.144 142.455C216.408 142.576 213.422 142.715 210.182 142.859C203.715 143.148 196.312 143.459 188.378 143.688C181.084 143.893 172.836 144.143 164.181 144.265C164.114 144.266 164.046 144.267 163.978 144.267C163.974 144.267 163.971 144.267 163.968 144.267C162.343 144.285 160.571 144.255 158.823 144.199C148.14 143.817 137.053 142.728 126.154 141.485C125.007 141.353 123.621 141.192 122.009 141C112.821 139.904 96.6366 137.829 77.0661 134.334C72.7559 133.563 68.3063 132.718 63.2243 131.698C61.6618 131.385 60.1136 131.069 58.4012 130.714C51.1726 129.186 42.3866 127.389 30.8823 124.255C26.7572 123.082 22.0109 121.752 17.643 119.696C11.9832 117.044 7.61615 111.477 5.4582 105.005C3.48772 99.2969 2.83805 93.0536 2.81451 86.9535C2.79716 80.7828 3.4485 74.8137 4.32466 68.9692C5.02281 57.0346 8.08768 46.1847 14.3672 36.7405C14.3691 36.7376 14.3709 36.7346 14.3728 36.7317C15.4326 35.0509 16.4418 33.8388 16.5426 33.9948C16.6476 34.1498 15.8188 35.6019 14.7697 37.2772C8.58165 46.6731 5.67173 57.13 4.94457 69.0569C4.0629 74.9353 3.41372 80.9171 3.44088 87.0868C3.47298 93.0502 4.11435 99.1825 6.04045 104.774C8.15722 111.126 12.3932 116.542 17.9167 119.133C22.2838 121.188 27.153 122.549 31.3327 123.73C43.0106 126.893 51.9456 128.712 59.2745 130.252C61.0441 130.617 62.6753 130.947 64.27 131.265C69.2758 132.263 73.467 133.055 77.5447 133.783C96.4836 137.157 112.053 139.169 121.258 140.276C122.906 140.474 124.358 140.644 125.572 140.785C136.209 142.009 147.206 143.098 157.775 143.529C159.565 143.596 161.144 143.635 162.913 143.64C162.916 143.64 162.92 143.64 162.923 143.64C163.358 143.64 163.777 143.638 164.181 143.632C172.45 143.517 180.383 143.281 187.559 143.081C195.184 142.863 201.878 142.585 208.117 142.31C211.432 142.163 214.689 142.015 217.86 141.876C228.836 141.371 238.494 141.088 262.974 139.972ZM8.55134 41.9169C6.23771 46.306 4.88825 50.1794 4.12404 53.1235C4.79745 50.6337 5.66381 48.2088 6.68415 45.8516C7.25726 44.5264 7.89601 43.1871 8.55134 41.9169ZM177.235 145.119C176.433 145.141 175.643 145.161 174.871 145.181C177.028 145.15 179.243 145.113 181.435 145.073C184.12 145.024 186.865 144.969 189.487 144.912C185.249 144.994 181.057 145.065 177.235 145.119ZM262.793 141.414C249.183 142.048 238.999 142.59 229.822 143.062C227.18 143.197 224.614 143.324 222.078 143.442C221.026 143.49 219.991 143.539 218.919 143.59C225.081 143.419 230.775 143.242 235.409 143.088C249.267 142.625 257.161 142.324 264.09 142.045C266.093 141.963 268.01 141.881 269.989 141.792C271.613 141.688 273.278 141.579 275.006 141.466C277.377 141.31 279.99 141.135 282.419 140.965C284.888 140.793 287.35 140.615 289.85 140.424C292.312 140.236 294.824 140.034 297.197 139.828C299.562 139.622 301.772 139.415 304.016 139.18C304.141 139.166 304.265 139.153 304.388 139.14C306.719 138.892 309.016 138.617 311.045 138.316C312.967 138.032 314.622 137.73 315.889 137.412C316.043 137.373 316.196 137.335 316.348 137.297C318.271 136.814 320.213 136.326 322.151 135.826C324.096 135.324 326.005 134.819 327.921 134.292C329.841 133.763 331.72 133.225 333.61 132.654C334.218 132.471 334.853 132.276 335.457 132.088C335.736 132.001 336.012 131.914 336.288 131.826C332.61 132.952 328.75 134.002 324.731 135.007C321.876 135.722 318.907 136.42 315.824 137.137C312.808 137.815 309.277 138.226 305.805 138.599C293.864 139.816 279.931 140.592 262.793 141.414ZM379.467 97.7172C379.02 99.3042 378.331 101.634 377.034 104.437C376.723 105.104 376.382 105.783 375.988 106.492C375.998 106.475 376.007 106.458 376.016 106.442C376.996 104.705 377.753 103.008 378.449 101.124C379.68 97.762 380.489 94.3408 381.07 90.8447C381.65 87.3348 381.981 83.7825 382.139 80.2213C382.295 76.6509 382.274 73.0603 382.109 69.5091C381.94 65.9173 381.633 62.3936 381.157 58.8503C381.005 57.7245 380.835 56.5962 380.64 55.4746C381.054 57.984 381.378 60.6177 381.63 63.3906C381.831 65.6131 381.983 67.9378 382.07 70.3842C382.104 71.3227 382.133 72.4574 382.143 73.7747C382.108 78.9849 382.199 87.3459 379.467 97.7172ZM365.771 32.1755C365.162 31.6234 364.558 31.0949 363.93 30.5646C362.184 29.0899 360.383 27.715 358.586 26.4591C357.311 25.5681 356.051 24.7431 354.749 23.9409C354.204 23.6052 353.674 23.2873 353.127 22.9677C352.207 22.4298 351.303 21.9245 350.387 21.4338C356.785 24.9079 362.646 29.0606 367.876 34.307C367.945 34.3767 368.015 34.4465 368.084 34.5168C367.302 33.685 366.559 32.9331 365.771 32.1755Z" fill="#878787"/>
</svg>
